<?xml version="1.0" encoding="utf-8"?>
<!-- Generator: Adobe Illustrator 23.0.5, SVG Export Plug-In . SVG Version: 6.00 Build 0)  -->
<svg version="1.1" id="Layer_1" xmlns="http://www.w3.org/2000/svg" xmlns:xlink="http://www.w3.org/1999/xlink" x="190px" y="58px"
	 viewBox="0 0 1000 1000" enable-background="new 0 0 1000 1000" xml:space="preserve">
<g>
	<path fill-rule="evenodd" clip-rule="evenodd" fill="#FFFFFF" d="M452.021,597.881H411.83l-15.904-44.058h-73.888l-15.316,44.058
		h-39.47l71.518-193.535h39.434L452.021,597.881z M383.809,521.107l-25.58-71.624l-24.885,71.624H383.809z M383.809,521.107"/>
	<path fill-rule="evenodd" clip-rule="evenodd" fill="#FFFFFF" d="M796.646,597.881v-96.536h-17.962V457.59
		c18.345,0,36.69,0,54.99,0v140.291H796.646z M796.646,597.881"/>
	<rect x="796.646" y="404.346" fill-rule="evenodd" clip-rule="evenodd" fill="#FFFFFF" width="37.028" height="34.346"/>
	<path fill-rule="evenodd" clip-rule="evenodd" fill="#FFFFFF" d="M853.793,597.881l50.535-72.248l-48.379-68.043h45.216
		l24.778,38.561l26.31-38.561h43.435l-47.542,66.439L1000,597.881h-45.172l-28.885-43.461l-28.752,43.461H853.793z M853.793,597.881
		"/>
	<path fill-rule="evenodd" clip-rule="evenodd" fill="#FFFFFF" d="M726.59,405.282h37.902v194.168H726.59v-9.079
		c-5.711,5.604-13.507,9.079-22.069,9.079h-41.1c-17.329,0-31.531-14.202-31.531-31.567v-76.596
		c0-17.338,14.202-31.531,31.531-31.531h41.1c8.562,0,16.358,3.439,22.069,9.043V405.282z M669.755,490.52h51.507v75.768h-51.507
		V490.52z M669.755,490.52"/>
	<path fill-rule="evenodd" clip-rule="evenodd" fill="#FFFFFF" d="M21.018,381.618h52.068v156.266h52.103v14.202H21.018V381.618z
		 M21.018,381.618"/>
	<path fill-rule="evenodd" clip-rule="evenodd" fill="#FFFFFF" d="M84.642,385.413v52.095h156.266v52.068h14.202V385.413H84.642z
		 M84.642,385.413"/>
	<path fill-rule="evenodd" clip-rule="evenodd" fill="#FFFFFF" d="M234.083,618.382h-52.059V462.116H129.92v-14.202h104.163V618.382
		z M234.083,618.382"/>
	<path fill-rule="evenodd" clip-rule="evenodd" fill="#FFFFFF" d="M170.468,614.587v-52.059H14.202v-52.103H0v104.162H170.468z
		 M170.468,614.587"/>
	<path fill-rule="evenodd" clip-rule="evenodd" fill="#FFFFFF" d="M559.008,457.038h42.633v139.944h-42.633v-11.903
		c-9.186,4.143-32.467,15.628-59.721,12.803c-15.28-1.559-30.24-10.086-30.24-29.339l-3.172-111.228h42.597
		c0.838,26.176-0.098,50.081,0.597,76.258c0.169,6.958,0,13.222,0.276,16.91c0.419,5.88,4.384,7.448,9.712,8.357
		c8.562,1.461,30.034,0.552,40.753,0.552L559.008,457.038z M559.008,457.038"/>
</g>
</svg>
