<?xml version="1.0" encoding="utf-8"?>
<!-- Generator: Adobe Illustrator 23.0.5, SVG Export Plug-In . SVG Version: 6.00 Build 0)  -->
<svg version="1.1" id="Layer_1" xmlns="http://www.w3.org/2000/svg" xmlns:xlink="http://www.w3.org/1999/xlink" x="0px" y="0px"
	 viewBox="0 0 1000 1000" enable-background="new 0 0 1000 1000" xml:space="preserve">
<g>
	<path fill-rule="evenodd" clip-rule="evenodd" fill="#FFFFFF" d="M252.158,630.991h-54.85l-21.704-60.128H74.767l-20.902,60.128H0
		l97.603-264.123h53.817L252.158,630.991z M159.067,526.215l-34.909-97.748l-33.961,97.748H159.067z M159.067,526.215"/>
	<path fill-rule="evenodd" clip-rule="evenodd" fill="#FFFFFF" d="M722.478,630.991V499.246h-24.513v-59.714
		c25.036,0,50.072,0,75.047,0v191.459H722.478z M722.478,630.991"/>
	<rect x="722.478" y="366.869" fill-rule="evenodd" clip-rule="evenodd" fill="#FFFFFF" width="50.534" height="46.874"/>
	<path fill-rule="evenodd" clip-rule="evenodd" fill="#FFFFFF" d="M800.467,630.991l68.967-98.599l-66.025-92.86h61.708
		l33.815,52.625l35.906-52.625h59.276l-64.882,90.671L1000,630.991h-61.647l-39.42-59.313l-39.238,59.313H800.467z M800.467,630.991
		"/>
	<path fill-rule="evenodd" clip-rule="evenodd" fill="#FFFFFF" d="M626.87,368.145h51.725v264.986H626.87v-12.39
		c-7.794,7.648-18.433,12.39-30.118,12.39h-56.091c-23.65,0-43.032-19.382-43.032-43.08V485.518
		c0-23.662,19.382-43.032,43.032-43.032h56.091c11.685,0,22.324,4.693,30.118,12.342V368.145z M549.306,484.473h70.293v103.402
		h-70.293V484.473z M549.306,484.473"/>
	<path fill-rule="evenodd" clip-rule="evenodd" fill="#FFFFFF" d="M398.167,438.778h58.182v190.985h-58.182v-16.245
		c-12.536,5.654-44.308,21.327-81.503,17.473c-20.853-2.128-41.269-13.765-41.269-40.04l-4.329-151.796h58.133
		c1.143,35.724-0.134,68.347,0.815,104.071c0.231,9.496,0,18.044,0.377,23.078c0.572,8.025,5.982,10.165,13.254,11.406
		c11.685,1.994,40.989,0.754,55.616,0.754L398.167,438.778z M398.167,438.778"/>
</g>
</svg>
